<svg width="39" height="39" viewBox="0 0 39 39" fill="none" xmlns="http://www.w3.org/2000/svg">
<path id="Vector" fill-rule="evenodd" clip-rule="evenodd" d="M19.5984 0C8.9946 0 0.398438 8.5962 0.398438 19.2001C0.398438 29.804 8.9946 38.4002 19.5984 38.4002C30.2023 38.4002 38.7984 29.804 38.7984 19.2001C38.7984 8.5962 30.2023 0 19.5984 0ZM27.8685 14.936H22.4451V13.3821H27.8685V14.936ZM27.3904 16.2403C26.7378 15.9517 26.0045 15.8067 25.1893 15.8067C23.8178 15.8067 22.704 16.2356 21.843 17.0874C20.9844 17.9414 20.5545 19.1686 20.5545 20.7687C20.5545 22.4747 21.029 23.7077 21.9839 24.4644C22.934 25.2224 24.0333 25.6001 25.2796 25.6001C26.7884 25.6001 27.9624 25.1511 28.8005 24.2542C29.3376 23.6887 29.641 23.1315 29.7072 22.5851H27.2087C27.0641 22.8559 26.8956 23.0675 26.7041 23.2207C26.3561 23.5022 25.9021 23.6435 25.3471 23.6435C24.8196 23.6435 24.3705 23.5271 23.9972 23.2955C23.3807 22.9237 23.058 22.2739 23.017 21.3485H29.8361C29.8469 20.5514 29.8204 19.9384 29.7542 19.5154C29.641 18.792 29.393 18.1553 29.0064 17.6065C28.5826 16.984 28.0444 16.5278 27.3904 16.2403ZM15.4743 12.8001C17.018 12.8226 18.1101 13.2657 18.7544 14.1305C19.1409 14.6616 19.3348 15.2959 19.3348 16.036C19.3348 16.7975 19.1409 17.4117 18.7496 17.875C18.5304 18.1339 18.2089 18.3715 17.7838 18.5854C18.4292 18.8182 18.9157 19.1852 19.2468 19.6878C19.5744 20.189 19.7393 20.7996 19.7393 21.5171C19.7393 22.2572 19.5515 22.9213 19.1746 23.5082C18.9362 23.8966 18.6376 24.2245 18.2788 24.4906C17.8753 24.7959 17.3997 25.0038 16.8494 25.1178C16.2991 25.2307 15.7043 25.2853 15.0612 25.2853H9.35844V12.8001H15.4743Z" fill="white"/>
</svg>
