<svg width="39" height="39" viewBox="0 0 39 39" fill="none" xmlns="http://www.w3.org/2000/svg">
<path id="Vector" d="M19.2002 0C8.59759 0 0 8.8136 0 19.6862C0 28.384 5.50143 35.7633 13.1302 38.3663C14.0898 38.5486 14.4421 37.9393 14.4421 37.4193C14.4421 36.9499 14.4243 35.3991 14.416 33.7542C9.07451 34.945 7.94739 31.4314 7.94739 31.4314C7.07399 29.156 5.81556 28.551 5.81556 28.551C4.07353 27.3291 5.94687 27.3542 5.94687 27.3542C7.8749 27.4931 8.89011 29.3829 8.89011 29.3829C10.6026 32.3925 13.3817 31.5224 14.4774 31.0194C14.6497 29.747 15.1473 28.8786 15.6964 28.387C11.4318 27.8892 6.94872 26.2012 6.94872 18.658C6.94872 16.5087 7.69876 14.7526 8.92699 13.3739C8.72763 12.8781 8.07044 10.8758 9.11299 8.16422C9.11299 8.16422 10.7253 7.63513 14.3944 10.1821C15.9259 9.74594 17.5685 9.5272 19.2002 9.5197C20.8319 9.5272 22.4756 9.74594 24.0101 10.1821C27.6747 7.63513 29.2848 8.16422 29.2848 8.16422C30.3299 10.8758 29.6724 12.8781 29.473 13.3739C30.7041 14.7526 31.4491 16.5087 31.4491 18.658C31.4491 26.2191 26.9574 27.884 22.682 28.3713C23.3707 28.9822 23.9843 30.1803 23.9843 32.0169C23.9843 34.651 23.962 36.7709 23.962 37.4193C23.962 37.9432 24.3077 38.557 25.2809 38.3637C32.9056 35.7577 38.4 28.3811 38.4 19.6862C38.4 8.8136 29.8037 0 19.2002 0ZM7.19108 28.0434C7.1488 28.1412 6.99873 28.1705 6.86201 28.1034C6.72275 28.0391 6.64453 27.9058 6.68968 27.8077C6.73102 27.7069 6.8814 27.6789 7.02035 27.7464C7.15993 27.8106 7.23941 27.9452 7.19108 28.0434ZM8.13552 28.9074C8.04395 28.9945 7.86495 28.954 7.74349 28.8165C7.6179 28.6792 7.59437 28.4957 7.68721 28.4073C7.78164 28.3203 7.95524 28.361 8.08115 28.4983C8.20674 28.6372 8.23122 28.8194 8.13552 28.9074ZM8.78344 30.0129C8.6658 30.0967 8.47344 30.0181 8.35453 29.8431C8.23689 29.668 8.23689 29.4581 8.35707 29.374C8.4763 29.2899 8.6658 29.3655 8.7863 29.5392C8.90362 29.7172 8.90362 29.9272 8.78344 30.0129ZM9.8792 31.2933C9.77396 31.4122 9.54981 31.3803 9.38575 31.2179C9.21788 31.0592 9.17114 30.8339 9.2767 30.7149C9.38321 30.5956 9.60863 30.6292 9.77396 30.7902C9.94057 30.9487 9.99144 31.1756 9.8792 31.2933ZM11.2954 31.7255C11.249 31.8797 11.0331 31.9498 10.8156 31.8842C10.5984 31.8168 10.4563 31.6362 10.5002 31.4803C10.5453 31.3252 10.7622 31.2521 10.9812 31.3222C11.1981 31.3894 11.3405 31.5687 11.2954 31.7255ZM12.907 31.9088C12.9124 32.0712 12.728 32.2058 12.4998 32.2087C12.2702 32.214 12.0845 32.0826 12.082 31.9228C12.082 31.7589 12.2622 31.6255 12.4918 31.6216C12.7201 31.6171 12.907 31.7475 12.907 31.9088ZM14.4903 31.8466C14.5177 32.005 14.359 32.1677 14.1323 32.2111C13.9094 32.2528 13.7031 32.155 13.6748 31.9979C13.6471 31.8355 13.8086 31.6728 14.0312 31.6308C14.2582 31.5904 14.4614 31.6855 14.4903 31.8466Z" fill="white"/>
</svg>
