<svg width="64" height="64" viewBox="0 0 64 64" fill="none" xmlns="http://www.w3.org/2000/svg">
<path d="M17.08 58.2692C16.5387 59.1042 15.4237 59.3417 14.59 58.7992C5.80875 53.0942 0 43.198 0 31.9467C0 30.7242 0.06875 29.5192 0.20125 28.3317C0.31875 27.2855 1.31 26.5642 2.3425 26.7717C3.25625 26.9555 3.87875 27.8067 3.77375 28.733C3.655 29.788 3.59375 30.8592 3.59375 31.9455C3.59375 41.9317 8.7475 50.713 16.54 55.7767C17.3763 56.3205 17.6213 57.433 17.08 58.2692Z" fill="#C72020"/>
<path d="M50.136 56.0918C50.7247 56.9193 50.5135 58.0706 49.6672 58.6318C47.2822 60.2143 44.6723 61.4856 41.896 62.3881C41.071 62.6556 40.2323 62.8906 39.3798 63.0918C39.1898 63.1368 38.9985 63.1806 38.806 63.2218C38.331 63.3243 37.8535 63.4168 37.371 63.4981C37.036 63.5543 36.6998 63.6068 36.361 63.6518C36.2273 63.6706 36.0935 63.6881 35.9597 63.7043C35.8872 63.7131 35.8147 63.7218 35.741 63.7306C35.5997 63.7468 35.4572 63.7631 35.3147 63.7768C34.731 63.8368 34.1423 63.8806 33.5497 63.9093C33.036 63.9343 32.5197 63.9468 31.9997 63.9468C31.4422 63.9468 30.8897 63.9331 30.3397 63.9043C29.6897 63.8718 29.046 63.8181 28.4072 63.7468C25.8535 63.4618 23.391 62.8768 21.056 62.0256C19.9772 61.6331 18.9247 61.1831 17.9035 60.6818C16.9397 60.2081 16.6097 58.9943 17.1947 58.0931C17.6872 57.3331 18.6723 57.0518 19.4848 57.4518C20.3923 57.8981 21.3273 58.2981 22.2873 58.6468C24.3597 59.4018 26.5447 59.9218 28.8122 60.1743C29.3785 60.2381 29.951 60.2856 30.5272 60.3143C31.016 60.3393 31.506 60.3518 32.001 60.3518C32.4623 60.3518 32.921 60.3406 33.3772 60.3181C33.9022 60.2931 34.426 60.2543 34.9435 60.2006C35.0697 60.1893 35.196 60.1743 35.3222 60.1593C35.3872 60.1518 35.4523 60.1443 35.516 60.1368C35.6348 60.1218 35.7535 60.1068 35.8723 60.0906C36.1735 60.0506 36.471 60.0031 36.7685 59.9531C37.1972 59.8818 37.621 59.7993 38.0422 59.7081C38.2135 59.6718 38.3835 59.6331 38.5523 59.5931C39.3085 59.4143 40.0535 59.2056 40.786 58.9681C43.246 58.1693 45.5597 57.0431 47.6747 55.6406C48.4835 55.1031 49.5722 55.2993 50.136 56.0918Z" fill="#517BBD"/>
<path d="M64.0013 32.8317C64.0013 33.7592 63.9588 34.6767 63.875 35.5842C63.8338 36.0405 63.78 36.4955 63.7175 36.9467C63.7138 36.9817 63.7088 37.0155 63.7038 37.0505C63.58 37.9217 63.42 38.7817 63.2225 39.628C63.1913 39.7567 63.16 39.8842 63.1288 40.013C62.9688 40.6617 62.7875 41.3017 62.585 41.933C62.48 42.263 62.3688 42.5917 62.2525 42.9167C60.3613 48.1955 57.0288 52.823 52.7063 56.363C51.905 57.0192 50.6913 56.868 50.0825 56.043C49.5413 55.3092 49.6738 54.2992 50.385 53.7167C54.22 50.5742 57.1775 46.468 58.855 41.7842C58.9588 41.4967 59.0575 41.2042 59.15 40.9117C59.33 40.3517 59.4913 39.7817 59.6325 39.2067C59.6613 39.093 59.6888 38.9805 59.7163 38.8655C59.8913 38.1142 60.0338 37.3517 60.1438 36.578C60.1475 36.5467 60.1525 36.5167 60.155 36.4867C60.2113 36.0867 60.2588 35.683 60.295 35.278C60.37 34.473 60.4075 33.658 60.4075 32.8342C60.4075 32.6992 60.4063 32.5655 60.4038 32.4305C60.385 31.193 60.2825 29.9767 60.0988 28.7842C59.9625 27.898 60.5438 27.058 61.445 26.843C62.47 26.5992 63.4975 27.2555 63.6525 28.2617C63.86 29.608 63.9775 30.9817 63.9988 32.3792C64 32.5292 64.0013 32.6792 64.0013 32.8317Z" fill="#2EA853"/>
<path d="M31.9727 1.79933C31.9727 2.74683 31.2364 3.53683 30.2902 3.59308C17.6177 4.34558 7.18019 13.4068 4.35269 25.4056C4.13019 26.3481 3.20019 26.9443 2.25019 26.7543H2.24894C1.25644 26.5543 0.61894 25.5756 0.85019 24.5906C4.03269 11.0643 15.7952 0.850578 30.0789 0.00307782C31.1077 -0.0569222 31.9727 0.768078 31.9727 1.79933Z" fill="#E84336"/>
<path d="M31.8594 1.79933C31.8594 2.74683 32.5956 3.53683 33.5419 3.59308C46.2144 4.34558 56.6519 13.4068 59.4794 25.4056C59.7019 26.3481 60.6319 26.9443 61.5819 26.7543H61.5831C62.5756 26.5543 63.2131 25.5756 62.9819 24.5906C59.8006 11.0643 48.0369 0.850578 33.7531 0.00307782C32.7244 -0.0569222 31.8594 0.768078 31.8594 1.79933Z" fill="#FBBC18"/>
<path d="M23.0625 21.9455V31.3255L15.8125 25.8968V23.043C15.8125 21.2643 17.255 19.8218 19.0338 19.8218C19.8075 19.8218 20.5612 20.073 21.1812 20.5368L23.0625 21.9455Z" fill="#C72020"/>
<path d="M48.1878 23.043V25.9093L40.8828 31.3805V22.0005L42.8516 20.5268C43.4616 20.0693 44.2041 19.8218 44.9666 19.8218C46.7453 19.8218 48.1878 21.2643 48.1878 23.043Z" fill="#FBBC18"/>
<path d="M23.0625 31.3255V44.0717H18.1038C16.8388 44.0717 15.8125 43.0467 15.8125 41.7805V25.8967L23.0625 31.3255Z" fill="#517BBD"/>
<path d="M48.1878 25.9092V41.7804C48.1878 43.0467 47.1616 44.0717 45.8966 44.0717H40.8828V31.3804L48.1878 25.9092Z" fill="#2EA853"/>
<path d="M32.0391 28.6693L32.0078 28.6455" stroke="black" stroke-width="0.125" stroke-miterlimit="10"/>
<path d="M40.8825 22.0006V31.3806L32.0088 38.0256L23.0625 31.3256V21.9456L32.0088 28.6456L40.8825 22.0006Z" fill="#E84336"/>
<path d="M32.0078 28.6455L31.9766 28.6693" stroke="black" stroke-width="0.125" stroke-miterlimit="10"/>
<path d="M32.0391 38.0491L32.0078 38.0254" stroke="black" stroke-width="0.125" stroke-miterlimit="10"/>
<path d="M32.0078 38.0254L31.9766 38.0491" stroke="black" stroke-width="0.125" stroke-miterlimit="10"/>
</svg>
