<svg width="64" height="64" viewBox="0 0 64 64" fill="none" xmlns="http://www.w3.org/2000/svg">
<g id="Group 55">
<g id="XMLID_1346_">
<path id="XMLID_1418_" d="M31.9554 63.9998C14.2817 63.9998 0 49.7181 0 32.0445C0 14.3709 14.371 0 32.0446 0C49.629 0 64 14.3709 64 32.0445C64 49.7181 49.629 63.9998 31.9554 63.9998Z" fill="url(#paint0_radial_1_559)"/>
<g id="XMLID_1347_">
<path id="XMLID_1352_" d="M31.9555 17.6735C36.6863 17.6735 37.2219 17.6735 39.0071 17.7627C40.703 17.852 41.6849 18.1198 42.3097 18.3875C43.1131 18.7446 43.7379 19.1016 44.3627 19.7265C44.9876 20.3513 45.3446 20.8868 45.7016 21.7794C45.9694 22.4043 46.2372 23.2969 46.3265 25.0821C46.4157 26.9566 46.4157 27.4921 46.4157 32.1337C46.4157 36.8645 46.4157 37.4 46.3265 39.1852C46.2372 40.8812 45.9694 41.8631 45.7016 42.4879C45.3446 43.2912 44.9876 43.916 44.3627 44.5409C43.7379 45.1657 43.2023 45.5227 42.3097 45.8798C41.6849 46.1476 40.7923 46.4153 39.0071 46.5046C37.1326 46.5939 36.597 46.5939 31.9555 46.5939C27.2247 46.5939 26.6891 46.5939 24.9039 46.5046C23.2079 46.4153 22.226 46.1476 21.6012 45.8798C20.7979 45.5227 20.173 45.1657 19.5482 44.5409C18.9234 43.916 18.5664 43.3805 18.2093 42.4879C17.9415 41.8631 17.6737 40.9705 17.5845 39.1852C17.4952 37.3108 17.4952 36.7752 17.4952 32.1337C17.4952 27.4029 17.4952 26.8673 17.5845 25.0821C17.6737 23.3861 17.9415 22.4043 18.2093 21.7794C18.5664 20.9761 18.9234 20.3513 19.5482 19.7265C20.173 19.1016 20.7086 18.7446 21.6012 18.3875C22.226 18.1198 23.1187 17.852 24.9039 17.7627C26.7783 17.6735 27.3139 17.6735 31.9555 17.6735ZM31.9555 14.4601C27.2247 14.4601 26.5998 14.4601 24.7253 14.5493C22.8509 14.6386 21.6012 14.9064 20.4408 15.3527C19.2804 15.799 18.2986 16.4238 17.3167 17.4057C16.3348 18.3875 15.71 19.3694 15.2637 20.5298C14.8174 21.6902 14.5496 22.9398 14.4604 24.8143C14.3711 26.6888 14.3711 27.3136 14.3711 32.0444C14.3711 36.7752 14.3711 37.4 14.4604 39.2745C14.5496 41.149 14.8174 42.3986 15.2637 43.559C15.71 44.7194 16.3348 45.7013 17.3167 46.6831C18.2986 47.665 19.2804 48.2898 20.4408 48.7361C21.6012 49.1824 22.8509 49.4502 24.7253 49.5395C26.5998 49.6287 27.2247 49.6287 31.9555 49.6287C36.6863 49.6287 37.3111 49.6287 39.1856 49.5395C41.0601 49.4502 42.3097 49.1824 43.4701 48.7361C44.6305 48.2898 45.6124 47.665 46.5942 46.6831C47.5761 45.7013 48.2009 44.7194 48.6472 43.559C49.0936 42.3986 49.3613 41.149 49.4506 39.2745C49.5399 37.4 49.5399 36.7752 49.5399 32.0444C49.5399 27.3136 49.5399 26.6888 49.4506 24.8143C49.3613 22.9398 49.0936 21.6902 48.6472 20.5298C48.2009 19.3694 47.5761 18.3875 46.5942 17.4057C45.6124 16.4238 44.6305 15.799 43.4701 15.3527C42.3097 14.9064 41.0601 14.6386 39.1856 14.5493C37.4004 14.4601 36.7756 14.4601 31.9555 14.4601Z" fill="white"/>
<path id="XMLID_1349_" d="M31.9548 23.0292C26.9562 23.0292 22.9395 27.0459 22.9395 32.0445C22.9395 37.0431 26.9562 41.0598 31.9548 41.0598C36.9534 41.0598 40.9701 37.0431 40.9701 32.0445C40.9701 27.0459 36.9534 23.0292 31.9548 23.0292ZM31.9548 37.8464C28.7414 37.8464 26.0636 35.2579 26.0636 31.9552C26.0636 28.7418 28.6521 26.064 31.9548 26.064C35.1682 26.064 37.846 28.6526 37.846 31.9552C37.846 35.2579 35.2574 37.8464 31.9548 37.8464Z" fill="white"/>
<path id="XMLID_1348_" d="M43.4701 13.6722C43.4701 14.8325 42.4882 15.8144 41.3279 15.8144C40.1675 15.8144 39.1856 14.8325 39.1856 13.6722C39.1856 12.5118 40.1675 11.5299 41.3279 11.5299C42.4882 11.5299 43.4701 12.5118 43.4701 13.6722Z" fill="white"/>
</g>
</g>
</g>
<defs>
<radialGradient id="paint0_radial_1_559" cx="0" cy="0" r="1" gradientUnits="userSpaceOnUse" gradientTransform="translate(-1.62169 64.249) scale(118.374 118.373)">
<stop stop-color="#F4EC55"/>
<stop offset="0.2412" stop-color="#E48242"/>
<stop offset="0.3463" stop-color="#D66863"/>
<stop offset="0.4422" stop-color="#CD4F74"/>
<stop offset="0.4888" stop-color="#C94379"/>
<stop offset="1" stop-color="#3F56A6"/>
</radialGradient>
</defs>
</svg>
