<svg width="64" height="64" viewBox="0 0 64 64" fill="none" xmlns="http://www.w3.org/2000/svg">
<path d="M32.0002 63.9995C14.355 63.9995 0 49.6445 0 31.9998C0 14.355 14.355 0 32.0002 0C49.645 0 64 14.355 64 31.9998C64 49.6445 49.645 63.9995 32.0002 63.9995Z" fill="#007BBC"/>
<path d="M50.091 34.4361V46.3845C50.091 46.6798 49.8517 46.9191 49.5564 46.9191H43.3881C43.093 46.9191 42.8536 46.6798 42.8536 46.3845V35.2727C42.8536 32.3484 41.8087 30.3513 39.1883 30.3513C37.1886 30.3513 36.0006 31.6958 35.476 32.9976C35.2855 33.4629 35.2364 34.109 35.2364 34.7615V46.3841C35.2364 46.6792 34.9971 46.9186 34.7018 46.9186H28.5355C28.2394 46.9186 27.9996 46.6801 28.001 46.3839C28.0148 43.425 28.0771 29.0672 28.0138 25.6925C28.0082 25.3935 28.2492 25.1515 28.5482 25.1515H34.7024C34.9975 25.1515 35.2369 25.3909 35.2369 25.686V28.2361C35.2223 28.2604 35.2018 28.2842 35.1889 28.3074H35.2369V28.2361C36.1987 26.7562 37.914 24.6404 41.7596 24.6404C46.5211 24.6404 50.091 27.7514 50.091 34.4361ZM17.2962 46.9191H23.4624C23.7575 46.9191 23.9969 46.6798 23.9969 46.3845V25.686C23.9969 25.3908 23.7575 25.1515 23.4624 25.1515H17.2962C17.001 25.1515 16.7617 25.3908 16.7617 25.686V46.3845C16.7617 46.6798 17.001 46.9191 17.2962 46.9191Z" fill="white"/>
<path d="M20.163 23.3827C22.3026 23.3827 24.037 21.6483 24.037 19.5087C24.037 17.3692 22.3026 15.6348 20.163 15.6348C18.0235 15.6348 16.2891 17.3692 16.2891 19.5087C16.2891 21.6483 18.0235 23.3827 20.163 23.3827Z" fill="white"/>
</svg>
