<svg width="96" height="94" viewBox="0 0 96 94" fill="none" xmlns="http://www.w3.org/2000/svg">
<g id="LOGO">
<path id="Rectangle 22" d="M52.6836 9.34668L66.7902 17.1623L72.1091 40.6092L78.5842 22.8464L90.147 28.7673L77.7748 60.8588L64.5933 54.3458L52.6836 9.34668Z" fill="#D9D9D9"/>
<g id="Rectangle 10">
<path d="M48 0.214722L96 25.4259V75.1414L48 51.5795V0.214722Z" fill="#118ACC"/>
<path d="M48 0.214722L96 25.4259V75.1414L48 51.5795V0.214722Z" fill="#118ACC"/>
</g>
<path id="Rectangle 11" d="M48 0.214722L0 25.4259V75.1414L48 51.5795V0.214722Z" fill="#00B7FC"/>
<path id="Rectangle 12" d="M48 51.4927L96 75.1414L48 93.6389V51.4927Z" fill="#00517C"/>
<path id="Rectangle 13" d="M48 51.4927L0 75.1414L48 93.6389V51.4927Z" fill="#2C709B"/>
<path id="Rectangle 18" d="M53.8555 9.34668L67.9621 17.1623L73.281 40.6092L79.7561 22.8464L91.3189 28.7673L78.9467 60.8588L65.7651 54.3458L53.8555 9.34668Z" fill="#1E2957"/>
<path id="Rectangle 16" d="M53.3867 9.1123L67.4933 16.9279L72.8122 40.3748L79.2874 22.612L90.8501 28.533L78.478 60.6244L65.2964 54.1114L53.3867 9.1123Z" fill="#D9D9D9"/>
<path id="Rectangle 17" d="M43.3164 9.58057L29.2098 17.3962L23.8909 40.8431L17.4158 23.0803L5.85299 29.0012L18.2252 61.0927L31.4067 54.5796L43.3164 9.58057Z" fill="#1E2957"/>
<path id="Rectangle 15" d="M42.8477 9.1123L28.7411 16.9279L23.4222 40.3748L16.947 22.612L5.38424 28.533L17.7564 60.6244L30.938 54.1114L42.8477 9.1123Z" fill="white"/>
</g>
</svg>
