<svg width="64" height="64" viewBox="0 0 64 64" fill="none" xmlns="http://www.w3.org/2000/svg">
<g id="Group 54">
<path id="Vector" d="M32 64C49.6731 64 64 49.6731 64 32C64 14.3269 49.6731 0 32 0C14.3269 0 0 14.3269 0 32C0 49.6731 14.3269 64 32 64Z" fill="#7AA5DA"/>
<path id="Vector_2" d="M63.9901 31.2596L49.785 17.0781L26.6465 45.2819L43.307 61.9424C55.3992 57.3735 63.9996 45.6919 63.9996 32C63.9996 31.7524 63.9957 31.5056 63.9901 31.2596Z" fill="#5786B5"/>
<path id="Vector_3" d="M47.9651 16.6899C49.2409 16.1922 50.5596 17.3084 50.2795 18.6487L44.5583 45.9963C44.291 47.2784 42.7848 47.8559 41.7289 47.0802L33.0921 40.7405L28.6898 45.2357C27.9161 46.0244 26.5823 45.7033 26.2504 44.6517L23.0741 34.5689L14.5601 32.0542C13.4418 31.7244 13.3771 30.1687 14.461 29.7442L47.9651 16.6899ZM43.7653 22.758C44.138 22.4283 43.7049 21.8465 43.2825 22.1094L24.9056 33.5065C24.5824 33.7069 24.4338 34.1013 24.5479 34.4654L27.054 45.4704C27.1036 45.6385 27.3449 45.6148 27.3665 45.4403L27.9268 37.0535C27.9483 36.8467 28.0474 36.657 28.2026 36.5192L43.7653 22.758Z" fill="white"/>
<path id="Vector_4" d="M43.2824 22.1095C43.7048 21.8466 44.1379 22.4284 43.7652 22.7581L28.2027 36.5192C28.0476 36.6571 27.9485 36.8467 27.9268 37.0536L27.3666 45.4404C27.3451 45.6149 27.1037 45.6386 27.0541 45.4705L24.5479 34.4655C24.4337 34.1014 24.5824 33.707 24.9057 33.5066L43.2824 22.1095Z" fill="#9EC2E5"/>
<path id="Vector_5" d="M27.1446 45.5848C26.7395 45.4404 26.3969 45.1171 26.2504 44.6516L23.0741 34.5689L14.5601 32.0541C13.4418 31.7244 13.3771 30.1686 14.461 29.7441L47.965 16.69C48.7881 16.3689 49.6308 16.7201 50.0466 17.371C49.969 17.2525 49.8764 17.1426 49.773 17.0456L27.0433 35.6013V36.4136L26.9183 36.3231L27.0433 41.4389V45.5418C27.0756 45.5569 27.11 45.5698 27.1445 45.5805V45.5848H27.1446Z" fill="white"/>
<g id="Group">
<path id="Vector_6" d="M50.3156 18.1898C50.3221 18.3363 50.3113 18.4914 50.279 18.6488L44.5577 45.9964C44.2905 47.2785 42.7842 47.856 41.7283 47.0803L33.0916 40.7407L27.0428 36.4137V35.6013L49.7726 17.0455C49.876 17.1425 49.9687 17.2524 50.0462 17.3709C50.0613 17.3968 50.0763 17.4204 50.0915 17.4442C50.1043 17.47 50.1195 17.4959 50.1325 17.5195C50.1453 17.5454 50.1583 17.5713 50.1691 17.5972C50.182 17.6252 50.1928 17.651 50.2036 17.679C50.2122 17.7028 50.223 17.7285 50.2316 17.7567C50.2596 17.8407 50.2811 17.9269 50.2962 18.0174C50.3048 18.0734 50.3113 18.1295 50.3156 18.1898Z" fill="#D1D1D1"/>
<path id="Vector_7" d="M33.0916 40.7407L28.6892 45.2358C28.6526 45.2724 28.6138 45.3091 28.575 45.3414C28.5362 45.3738 28.4973 45.4018 28.4565 45.4298C28.4543 45.4319 28.4543 45.4319 28.4543 45.4319C28.3725 45.4858 28.2885 45.5311 28.2001 45.5677C28.1548 45.5849 28.1117 45.6022 28.0665 45.6129C27.879 45.6689 27.6872 45.6841 27.4976 45.6647C27.4481 45.6604 27.3985 45.6518 27.3511 45.6432C27.3446 45.6432 27.3382 45.6411 27.3317 45.6389C27.2843 45.6261 27.2368 45.6131 27.1895 45.5979C27.1743 45.5937 27.1593 45.5893 27.1442 45.5807L27.043 41.4391V36.4138L33.0916 40.7407Z" fill="#D1D1D1"/>
</g>
<g id="Group_2">
<path id="Vector_8" d="M28.5735 45.3413C28.5347 45.3737 28.4958 45.4038 28.455 45.4318V45.4297C28.496 45.4017 28.5347 45.3737 28.5735 45.3413Z" fill="#DADDE0"/>
<path id="Vector_9" d="M28.4552 45.4297V45.4318C28.4552 45.4318 28.4553 45.4297 28.4531 45.4318C28.4531 45.4318 28.4531 45.4318 28.4552 45.4297Z" fill="#DADDE0"/>
<path id="Vector_10" d="M28.1992 45.5676C28.2876 45.531 28.3716 45.4858 28.4535 45.4319C28.3716 45.4856 28.2853 45.5309 28.1992 45.5676Z" fill="#DADDE0"/>
<path id="Vector_11" d="M27.4961 45.6645C27.6857 45.6839 27.8775 45.6688 28.065 45.6128C27.9292 45.6559 27.7891 45.6753 27.6491 45.6753C27.606 45.6753 27.5628 45.6732 27.522 45.6688C27.5133 45.6689 27.5047 45.6689 27.4961 45.6645Z" fill="#DADDE0"/>
</g>
<g id="Group_3">
<path id="Vector_12" d="M27.4979 45.6646C27.5065 45.6689 27.5152 45.6689 27.5238 45.6689C27.4785 45.6667 27.4375 45.6602 27.3945 45.6516C27.4289 45.6582 27.4634 45.6625 27.4979 45.6646Z" fill="white"/>
</g>
<g id="Group_4">
<path id="Vector_13" d="M27.4981 45.6644C27.4636 45.6623 27.4291 45.6579 27.3947 45.6516C27.3796 45.6494 27.3646 45.6473 27.3516 45.6429C27.3989 45.6516 27.4484 45.6602 27.4981 45.6644Z" fill="#DADDE0"/>
<path id="Vector_14" d="M27.1895 45.5978C27.2368 45.6129 27.2843 45.6258 27.3317 45.6388C27.3123 45.6345 27.293 45.6302 27.2736 45.6259C27.265 45.6238 27.2563 45.6217 27.2498 45.6173C27.2303 45.6129 27.2088 45.6064 27.1895 45.5978Z" fill="#DADDE0"/>
</g>
<g id="Group_5">
<path id="Vector_15" d="M27.2734 45.626C27.2928 45.6302 27.3122 45.6346 27.3316 45.6389C27.3122 45.6367 27.2928 45.6325 27.2734 45.626Z" fill="white"/>
<path id="Vector_16" d="M27.189 45.5979C27.2083 45.6065 27.23 45.613 27.2493 45.6173C27.217 45.6108 27.1847 45.6 27.1523 45.5872C27.1652 45.5914 27.176 45.5958 27.189 45.5979Z" fill="white"/>
</g>
<path id="Vector_17" d="M27.1898 45.5977C27.1769 45.5956 27.166 45.5912 27.1532 45.5869C27.151 45.5891 27.1467 45.5869 27.1445 45.5848V45.5806C27.1595 45.5891 27.1747 45.5933 27.1898 45.5977Z" fill="#DADDE0"/>
<path id="Vector_18" d="M27.0428 41.4388L27.1441 45.5805C27.1096 45.5697 27.0751 45.5567 27.0428 45.5417V41.4388Z" fill="#D1D1D1"/>
<path id="Vector_19" d="M27.0428 36.4136V41.4389L26.9178 36.3231L27.0428 36.4136Z" fill="#DADDE0"/>
<path id="Vector_20" d="M43.7652 22.758L28.2027 36.5192C28.0476 36.657 27.9484 36.8467 27.9268 37.0535L27.3676 45.441C27.3461 45.6155 27.1047 45.6393 27.0529 45.4712L24.5479 34.4655C24.4337 34.1014 24.5824 33.707 24.9057 33.5067L43.2826 22.1095C43.7049 21.8465 44.1381 22.4284 43.7652 22.758Z" fill="#ADBCC9"/>
</g>
</svg>
